<svg xmlns="http://www.w3.org/2000/svg" width="1280" height="720" viewBox="0 0 1280 720" role="img" aria-labelledby="title desc">
  <title id="title">DREAM Qwen Cloud MemoryAgent video thumbnail</title>
  <desc id="desc">DREAM proves one current truth across three Qwen-powered sessions with constrained recall and Alibaba deployment.</desc>
  <defs>
    <filter id="shadow" x="-15%" y="-15%" width="130%" height="130%">
      <feDropShadow dx="0" dy="14" stdDeviation="16" flood-color="#00151f" flood-opacity="0.32"/>
    </filter>
    <style>
      .sans { font-family: Inter, Segoe UI, Arial, sans-serif; letter-spacing: 0; }
      .mono { font-family: Consolas, SFMono-Regular, Menlo, monospace; letter-spacing: 0; }
    </style>
  </defs>

  <rect width="1280" height="720" fill="#082f3f"/>
  <rect x="0" y="0" width="1280" height="10" fill="#f6c85f"/>
  <g opacity="0.09" stroke="#dff8f4" stroke-width="1">
    <path d="M0 120H1280M0 240H1280M0 360H1280M0 480H1280M0 600H1280"/>
    <path d="M160 0V720M320 0V720M480 0V720M640 0V720M800 0V720M960 0V720M1120 0V720"/>
  </g>

  <g transform="translate(76 62)">
    <rect x="0" y="0" width="1128" height="596" rx="20" fill="#ffffff" opacity="0.06"/>
    <rect x="20" y="20" width="1088" height="556" rx="14" fill="#062631" opacity="0.78"/>
  </g>

  <g transform="translate(112 96)">
    <text class="sans" x="0" y="54" fill="#ffffff" font-size="66" font-weight="900">DREAM</text>
    <rect x="0" y="72" width="318" height="7" rx="3.5" fill="#f6c85f"/>
    <text class="sans" x="0" y="126" fill="#9de6db" font-size="28" font-weight="800">QWEN CLOUD TRACK 1 MEMORYAGENT</text>
  </g>

  <g transform="translate(112 286)">
    <text class="sans" x="0" y="0" fill="#ffffff" font-size="58" font-weight="900">ONE CURRENT TRUTH</text>
    <text class="sans" x="0" y="50" fill="#dceef3" font-size="25" font-weight="700">Remember durable experience. Replace stale guidance.</text>
    <text class="sans" x="0" y="90" fill="#dceef3" font-size="25" font-weight="700">Recall only the current truth under a hard context budget.</text>
  </g>

  <g transform="translate(112 438)">
    <rect x="0" y="0" width="300" height="112" rx="10" fill="#f5fbfc" filter="url(#shadow)"/>
    <text class="sans" x="24" y="35" fill="#49616b" font-size="18" font-weight="800">SESSION 1</text>
    <text class="sans" x="24" y="78" fill="#13705e" font-size="31" font-weight="900">REMEMBER</text>
    <path d="M236 57h34M258 43l14 14-14 14" fill="none" stroke="#2a9d8f" stroke-width="6" stroke-linecap="round" stroke-linejoin="round"/>
  </g>
  <g transform="translate(432 438)">
    <rect x="0" y="0" width="300" height="112" rx="10" fill="#f5fbfc" filter="url(#shadow)"/>
    <text class="sans" x="24" y="35" fill="#49616b" font-size="18" font-weight="800">SESSION 2</text>
    <text class="sans" x="24" y="78" fill="#b75b31" font-size="31" font-weight="900">SUPERSEDE</text>
    <path d="M236 57h34M258 43l14 14-14 14" fill="none" stroke="#e76f51" stroke-width="6" stroke-linecap="round" stroke-linejoin="round"/>
  </g>
  <g transform="translate(752 438)">
    <rect x="0" y="0" width="340" height="112" rx="10" fill="#f5fbfc" filter="url(#shadow)"/>
    <text class="sans" x="24" y="35" fill="#49616b" font-size="18" font-weight="800">SESSION 3</text>
    <text class="sans" x="24" y="78" fill="#245f8a" font-size="31" font-weight="900">RECALL 19 / 64</text>
  </g>

  <g transform="translate(824 104)">
    <rect x="0" y="0" width="268" height="258" rx="16" fill="#f5fbfc" filter="url(#shadow)"/>
    <text class="sans" x="24" y="42" fill="#49616b" font-size="17" font-weight="800">REAL QWEN BENCHMARK</text>
    <text class="sans" x="24" y="104" fill="#13705e" font-size="47" font-weight="900">24 / 24</text>
    <text class="sans" x="24" y="137" fill="#49616b" font-size="20" font-weight="700">lifecycle cases passed</text>
    <rect x="24" y="166" width="220" height="1" fill="#c4d6dc"/>
    <text class="sans" x="24" y="207" fill="#b75b31" font-size="30" font-weight="900">0% LEAK</text>
    <text class="sans" x="24" y="235" fill="#49616b" font-size="18" font-weight="700">37 curator decisions</text>
  </g>

  <g transform="translate(112 608)">
    <rect x="0" y="-30" width="386" height="44" rx="22" fill="#2a9d8f"/>
    <text class="sans" x="22" y="0" fill="#ffffff" font-size="22" font-weight="800">ALIBABA FUNCTION COMPUTE</text>
    <text class="mono" x="430" y="0" fill="#f6c85f" font-size="22" font-weight="800">qwen3.7-plus</text>
    <text class="sans" x="776" y="0" fill="#dceef3" font-size="20" font-weight="800">100.0 / 100</text>
  </g>
</svg>
